<svg width="16" height="14" viewBox="0 0 16 14" fill="none" xmlns="http://www.w3.org/2000/svg">
<path fill-rule="evenodd" clip-rule="evenodd" d="M15.5 6H14.5C14.2 6 14 6.2 14 6.5V12H2V6.5C2 6.2 1.8 6 1.5 6H0.5C0.2 6 0 6.2 0 6.5V13C0 13.6 0.4 14 1 14H15C15.6 14 16 13.6 16 13V6.5C16 6.2 15.8 6 15.5 6Z" fill="white"/>
<path fill-rule="evenodd" clip-rule="evenodd" d="M7.70015 9.8C7.90015 10 8.20015 10 8.30015 9.8L10.9001 6.5C11.1001 6.3 11.0001 6 10.7001 6H9.00015V0.5C9.00015 0.2 8.80015 0 8.50015 0H7.50015C7.20015 0 7.00015 0.2 7.00015 0.5V6H5.30015C5.00015 6 4.90015 6.3 5.10015 6.5L7.70015 9.8Z" fill="white"/>
</svg>
