<svg width="14" height="10" viewBox="0 0 14 10" fill="none" xmlns="http://www.w3.org/2000/svg">
<path fill-rule="evenodd" clip-rule="evenodd" d="M1 2H13C13.6 2 14 1.6 14 1C14 0.4 13.6 0 13 0H1C0.4 0 0 0.4 0 1C0 1.6 0.4 2 1 2Z" fill="white"/>
<path fill-rule="evenodd" clip-rule="evenodd" d="M13 4H1C0.4 4 0 4.4 0 5C0 5.6 0.4 6 1 6H13C13.6 6 14 5.6 14 5C14 4.4 13.6 4 13 4Z" fill="white"/>
<path fill-rule="evenodd" clip-rule="evenodd" d="M13 8H1C0.4 8 0 8.4 0 9C0 9.6 0.4 10 1 10H13C13.6 10 14 9.6 14 9C14 8.4 13.6 8 13 8Z" fill="white"/>
</svg>
