<svg width="51" height="50" viewBox="0 0 51 50" fill="none" xmlns="http://www.w3.org/2000/svg">
<path d="M1.08552 20.8377L48.6193 0.141884C50.0643 -0.485262 51.5094 1.0826 50.8249 2.57207L31.8114 43.8853C31.355 44.9044 30.1382 45.218 29.2255 44.5909L24.206 40.9064L16.5245 48.8241C15.764 49.608 14.8513 50 13.8626 50C13.4063 50 13.026 49.9216 12.5697 49.7648C11.2007 49.2945 10.212 48.0402 10.0599 46.4723L8.2346 29.3826L0.70525 23.9734C-0.359509 23.1895 -0.207401 21.3865 1.08552 20.8377ZM21.3159 38.8682L17.9695 36.438L15.9161 44.3557L21.3159 38.8682ZM13.026 41.7687L14.8513 34.7133C14.9274 34.3997 15.0795 34.0862 15.3076 33.9294L29.5297 19.6618C29.834 19.3482 29.4537 18.8779 29.0734 19.1131L12.7978 31.4992C12.2655 31.8912 12.0373 32.5183 12.1134 33.1454L13.026 41.7687Z" fill="white"/>
</svg>
