<svg width="53" height="60" viewBox="0 0 53 60" fill="none" xmlns="http://www.w3.org/2000/svg">
<path fill-rule="evenodd" clip-rule="evenodd" d="M39.9435 48.8551C39.1616 49.6262 37.8823 49.6262 37.0294 48.8551L34.3286 46.1916H30.3485C28.0031 46.1916 26.013 44.2991 26.013 41.9159V33.9953C26.013 31.6822 27.932 29.7196 30.3485 29.7196H45.7715V6.02804C45.7715 2.73365 43.0707 0 39.6592 0H13.0065C9.66603 0 6.89415 2.66355 6.89415 6.02804V8.90187H22.3172C24.6626 8.90187 26.6527 10.7944 26.6527 13.1776V22.0794C26.6527 24.3925 24.7337 26.3551 22.3172 26.3551H18.337L15.6362 28.8785C14.8544 29.6495 13.5751 29.6495 12.7222 28.8785L10.0214 26.215H6.89415V53.972C6.89415 57.2664 9.59495 60 13.0065 60H39.7302C43.0707 60 45.8426 57.3364 45.8426 53.972V46.1916H42.6443L39.9435 48.8551Z" fill="white"/>
<path fill-rule="evenodd" clip-rule="evenodd" d="M11.585 24.5327L13.6462 26.5654C13.9305 26.8457 14.4991 26.8457 14.7833 26.5654L16.8445 24.5327C17.1999 24.1822 17.7684 23.9719 18.266 23.9719H22.3172C23.4543 23.9719 24.3783 23.0607 24.3783 21.9392V13.1074C24.3783 11.9859 23.4543 11.0747 22.3172 11.0747H2.06114C0.923959 11.0747 0 11.9859 0 13.1074V22.0093C0 23.1308 0.923959 24.042 2.06114 24.042H10.1636C10.6611 23.9719 11.1586 24.1822 11.585 24.5327ZM15.1387 16.8925C15.423 16.6121 15.9916 16.6121 16.347 16.8925C16.418 16.9626 16.418 16.9626 16.418 17.0327C16.4891 17.1027 16.4891 17.1027 16.4891 17.1728C16.4891 17.2429 16.5602 17.2429 16.5602 17.313C16.5602 17.3831 16.5602 17.3831 16.5602 17.4532C16.5602 17.6635 16.4891 17.8738 16.2759 18.014C16.1337 18.1541 15.9205 18.2943 15.7073 18.2943C15.5652 18.2943 15.4941 18.2943 15.3519 18.2242C15.2098 18.1541 15.1387 18.1541 15.0676 18.014C14.9255 17.8738 14.7833 17.6635 14.7833 17.4532C14.8544 17.2429 14.9255 17.0327 15.1387 16.8925ZM11.3007 17.313C11.3007 17.2429 11.3007 17.1728 11.3718 17.1728C11.3718 17.1027 11.4429 17.1027 11.4429 17.0327C11.4429 16.9626 11.514 16.9626 11.514 16.8925C11.514 16.8224 11.585 16.8224 11.6561 16.8224C11.7272 16.8224 11.7272 16.7523 11.7982 16.7523C11.8693 16.7523 11.8693 16.7523 11.9404 16.6822C12.2247 16.6121 12.509 16.6822 12.7222 16.8925C12.8644 17.0327 13.0065 17.2429 13.0065 17.5233C13.0065 17.7336 12.9354 17.9439 12.7222 18.0841C12.5801 18.2242 12.3668 18.3644 12.1536 18.3644C12.0115 18.3644 11.9404 18.3644 11.7982 18.2943C11.6561 18.2242 11.585 18.2242 11.514 18.0841C11.3718 17.9439 11.3007 17.7336 11.3007 17.5233C11.3007 17.4532 11.3007 17.3831 11.3007 17.313ZM9.38174 17.8037C9.31067 17.8738 9.31067 18.014 9.16852 18.0841C9.02637 18.2242 8.81315 18.3644 8.59993 18.3644C8.38671 18.3644 8.17349 18.2943 7.96026 18.0841C7.88919 18.014 7.81812 17.9439 7.74704 17.8037C7.67597 17.7336 7.67597 17.5934 7.67597 17.4532C7.67597 17.2429 7.74704 17.0327 7.88919 16.8224C8.17349 16.542 8.74208 16.542 9.09745 16.8224C9.23959 16.9626 9.38174 17.1728 9.38174 17.4532C9.45281 17.5934 9.45281 17.7336 9.38174 17.8037Z" fill="#32EFE7"/>
<path fill-rule="evenodd" clip-rule="evenodd" d="M50.6756 31.9626H30.4196C29.2824 31.9626 28.3584 32.8739 28.3584 33.9954V41.986C28.3584 43.1075 29.2824 44.0187 30.4196 44.0187H34.4708C35.0394 44.0187 35.5369 44.229 35.8923 44.5795L37.9534 46.6122C38.2377 46.8926 38.8063 46.8926 39.0906 46.6122L41.1517 44.5795C41.5071 44.229 42.0757 44.0187 42.5732 44.0187H50.6756C51.8128 44.0187 52.7368 43.1075 52.7368 41.986V33.9954C52.6657 32.8739 51.7417 31.9626 50.6756 31.9626ZM37.7402 38.2711C37.6691 38.3412 37.6691 38.4813 37.527 38.5514C37.3848 38.6916 37.1716 38.8318 36.9584 38.8318C36.7452 38.8318 36.5319 38.7617 36.3187 38.5514C36.2476 38.4813 36.1766 38.4112 36.1055 38.2711C36.0344 38.201 36.0344 38.0608 36.0344 37.9206C36.0344 37.7103 36.1055 37.5 36.2476 37.2898C36.5319 37.0094 37.1005 37.0094 37.4559 37.2898C37.598 37.4299 37.7402 37.6402 37.7402 37.9206C37.8113 38.0608 37.8113 38.201 37.7402 38.2711ZM41.1517 38.5514C41.0096 38.6916 40.7964 38.8318 40.5831 38.8318C40.441 38.8318 40.3699 38.8318 40.2278 38.7617C40.0856 38.6916 40.0145 38.6916 39.9435 38.5514C39.8013 38.4112 39.7303 38.201 39.7303 37.9907C39.7303 37.9206 39.7303 37.8505 39.7303 37.8505C39.7303 37.7804 39.7303 37.7103 39.8013 37.7103C39.8013 37.6402 39.8724 37.6402 39.8724 37.5701C39.8724 37.5 39.9435 37.5 39.9435 37.4299C39.9435 37.3598 40.0145 37.3598 40.0856 37.3598C40.1567 37.3598 40.1567 37.2898 40.2278 37.2898C40.2988 37.2898 40.2988 37.2898 40.3699 37.2197C40.6542 37.1496 40.9385 37.2197 41.1517 37.4299C41.2939 37.5701 41.436 37.7804 41.436 38.0608C41.3649 38.201 41.2939 38.4112 41.1517 38.5514ZM44.7054 38.5514C44.5633 38.6916 44.35 38.8318 44.1368 38.8318C43.9947 38.8318 43.9236 38.8318 43.7815 38.7617C43.6393 38.6916 43.5682 38.6916 43.4972 38.5514C43.355 38.4112 43.2129 38.201 43.2129 37.9907C43.2129 37.7804 43.2839 37.5701 43.4972 37.3598C43.7815 37.0795 44.35 37.0795 44.7054 37.3598C44.7765 37.4299 44.7765 37.4299 44.7765 37.5C44.8476 37.5701 44.8476 37.5701 44.8476 37.6402C44.8476 37.7103 44.9186 37.7103 44.9186 37.7804C44.9186 37.8505 44.9186 37.8505 44.9186 37.9206C44.9186 38.201 44.8476 38.4112 44.7054 38.5514Z" fill="#A849CF"/>
</svg>
