<svg width="51" height="60" viewBox="0 0 51 60" fill="none" xmlns="http://www.w3.org/2000/svg">
<path d="M50.393 31.4764V9.55254C50.393 8.78694 50.045 8.09095 49.4186 7.53415C48.7922 6.97735 48.0266 6.76855 47.261 6.83815C46.217 6.97735 45.0338 7.04695 43.9898 7.04695C34.0371 7.04695 27.5643 0.852594 27.4947 0.782995C26.4507 -0.260998 24.7803 -0.260998 23.7363 0.782995C23.7363 0.852594 17.3332 7.04695 7.24126 7.04695C6.19727 7.04695 5.01407 6.97735 3.97008 6.83815C3.13489 6.76855 2.43889 6.97735 1.8125 7.53415C1.1861 8.09095 0.838102 8.71734 0.838102 9.55254V31.4764C0.768502 33.286 0.559705 49.5723 24.6411 59.3162C24.9891 59.4554 25.3371 59.525 25.6851 59.525C26.0331 59.525 26.3811 59.4554 26.7291 59.3162C50.741 49.5027 50.5322 33.286 50.393 31.4764ZM37.6563 40.2459C37.6563 43.1691 34.9419 45.5355 31.5315 45.5355H19.6996C16.2892 45.5355 13.5748 43.1691 13.5748 40.2459V25.4908C13.5748 22.9852 15.5236 20.9669 18.238 20.3405V17.1389C18.238 13.1021 21.5788 9.76133 25.6155 9.76133C29.6523 9.76133 32.9931 13.1021 32.9931 17.1389V20.3405C35.6379 20.8973 37.6563 22.9852 37.6563 25.4908V40.2459Z" fill="white"/>
<path d="M30.7659 17.1389C30.7659 14.2853 28.4691 11.9885 25.6155 11.9885C22.762 11.9885 20.4652 14.2853 20.4652 17.1389V20.2013H30.8355L30.7659 17.1389Z" fill="white"/>
<path d="M25.6155 37.81C28.2294 37.81 30.3483 35.6911 30.3483 33.0773C30.3483 30.4634 28.2294 28.3445 25.6155 28.3445C23.0017 28.3445 20.8828 30.4634 20.8828 33.0773C20.8828 35.6911 23.0017 37.81 25.6155 37.81Z" fill="#32EFE7"/>
<path d="M25.6155 40.8028C21.37 40.8028 17.542 38.506 15.5236 34.8172C14.9668 33.8428 14.9668 32.3812 15.5236 31.4068C17.542 27.718 21.4396 25.4213 25.6155 25.4213C29.8611 25.4213 33.6891 27.718 35.7075 31.4068C36.2643 32.3812 36.2643 33.8428 35.7075 34.8172C33.6891 38.506 29.8611 40.8028 25.6155 40.8028ZM25.6155 27.0917C21.9964 27.0917 18.7252 29.0404 16.9852 32.242C16.7068 32.7292 16.7068 33.634 16.9852 34.1212C18.7252 37.2532 21.9964 39.2716 25.6155 39.2716C29.2347 39.2716 32.5059 37.3228 34.2459 34.1212C34.5243 33.634 34.5243 32.7292 34.2459 32.242C32.5059 29.0404 29.2347 27.0917 25.6155 27.0917Z" fill="#32EFE7"/>
</svg>
