<svg width="17" height="16" viewBox="0 0 17 16" fill="none" xmlns="http://www.w3.org/2000/svg">
<g clip-path="url(#clip0)">
<path d="M5.3 15.6C4 15.6 2.6 15 1.6 14C0.6 13 0 11.6 0 10.2C0 8.79998 0.6 7.39998 1.6 6.39998L6.9 1.09998C8.4 -0.400024 10.8 -0.400024 12.3 1.09998C13.8 2.59998 13.8 4.99998 12.3 6.49998L7 11.9C6.1 12.8 4.6 12.8 3.7 11.9C2.8 11 2.8 9.49998 3.7 8.59998L9 3.19998C9.3 2.89998 9.9 2.89998 10.2 3.19998C10.5 3.49998 10.5 4.09998 10.2 4.39998L4.9 9.79998C4.6 10.1 4.6 10.5 4.9 10.7C5.2 11 5.6 11 5.8 10.7L11.1 5.39998C11.9 4.59998 11.9 3.19998 11.1 2.39998C10.3 1.59998 8.9 1.59998 8.1 2.39998L2.8 7.59998C2.1 8.29998 1.7 9.19998 1.7 10.2C1.7 11.2 2.1 12.1 2.8 12.8C4.2 14.2 6.5 14.2 8 12.8L15.4 5.39998C15.7 5.09998 16.3 5.09998 16.6 5.39998C16.9 5.69998 16.9 6.29998 16.6 6.59998L8.8 14.4C7.8 15.2 6.6 15.6 5.3 15.6Z" fill="#091132"/>
</g>
<defs>
<clipPath id="clip0">
<rect width="16.8" height="15.6" fill="white"/>
</clipPath>
</defs>
</svg>
